<?xml version="1.0" encoding="utf-8"?>
<!-- Generator: Adobe Illustrator 15.0.0, SVG Export Plug-In . SVG Version: 6.00 Build 0)  -->
<!DOCTYPE svg PUBLIC "-//W3C//DTD SVG 1.1 Basic//EN" "http://www.w3.org/Graphics/SVG/1.1/DTD/svg11-basic.dtd">
<svg version="1.1" baseProfile="basic" id="Layer_1"
	 xmlns="http://www.w3.org/2000/svg" xmlns:xlink="http://www.w3.org/1999/xlink" x="0px" y="0px" width="283.46px"
	 height="141.73px" viewBox="0 0 283.46 141.73" xml:space="preserve">
<g>
	<path fill="#FFFFFF" d="M64.843,20.533c0.097,4.714,0.014,9.434,0.041,14.151c0.004,12.099-0.005,24.198,0.005,36.299
		c-3.913-2.659-7.724-5.46-11.609-8.157c-0.555-0.456-1.213-0.776-1.716-1.298c4.31-13.221,8.588-26.451,12.89-39.674
		C64.599,21.417,64.722,20.976,64.843,20.533z"/>
	<path fill="#FFFFFF" d="M65.114,71.123c4.7-3.142,9.411-6.271,14.111-9.415c27.215,2.748,54.425,5.529,81.638,8.29
		c3.64,0.336,7.27,0.808,10.919,1.046c-1.293,0.109-2.586,0.075-3.881,0.081C133.639,71.123,99.377,71.126,65.114,71.123z"/>
	<path fill="#FFFFFF" d="M3.221,71.243c20.499-0.045,40.999,0.022,61.498-0.035c-2.934,2.27-6.007,4.355-8.968,6.593
		c-1.5,1.015-2.915,2.161-4.42,3.165C35.299,77.707,19.256,74.494,3.221,71.243z"/>
	<path fill="#FFFFFF" d="M64.979,75.971c-0.027-1.557,0.053-3.12-0.045-4.675c0.863,0.696,1.867,1.196,2.719,1.911
		c3.06,2.01,6.016,4.161,9.076,6.169c0.797,0.612,1.629,1.187,2.496,1.688c-4.765,13.846-9.493,27.703-14.248,41.551
		C64.979,107.066,64.977,91.519,64.979,75.971z"/>
	<path fill="#FFFFFF" d="M276.168,91.94c0.924,0,1.85,0.001,2.775-0.002c-0.863,0.763-1.709,1.542-2.549,2.33
		c-0.521,0.006-1.039,0.005-1.556,0.003C275.291,93.499,275.716,92.712,276.168,91.94z"/>
	<path fill="#FFFFFF" d="M222.167,92.152c1.428-0.098,2.967-0.053,4.232,0.692c0.935,0.562,1.383,1.629,1.536,2.669
		c-1.122,0.075-2.247,0.099-3.365,0.213c-0.131-0.521-0.35-1.095-0.896-1.297c-0.645-0.257-1.54-0.281-2.01,0.304
		c-0.338,0.482,0.102,1.054,0.608,1.143c1.518,0.426,3.155,0.595,4.524,1.441c0.874,0.522,1.475,1.49,1.488,2.521
		c0.121,1.514-0.84,2.997-2.216,3.6c-1.189,0.526-2.522,0.585-3.801,0.508c-0.998-0.112-2.052-0.262-2.878-0.876
		c-0.986-0.772-1.476-2.007-1.602-3.224c1.138-0.029,2.276-0.092,3.408-0.206c0.107,0.66,0.328,1.395,0.967,1.73
		c0.81,0.455,2.099,0.394,2.583-0.501c0.323-0.672-0.285-1.347-0.915-1.508c-1.578-0.508-3.366-0.646-4.663-1.781
		c-1.149-0.97-1.228-2.851-0.274-3.982C219.677,92.611,220.965,92.253,222.167,92.152z"/>
	<path fill="#FFFFFF" d="M98,92.3c3.191,0,6.382,0,9.573,0c-0.002,0.896-0.002,1.794,0,2.691c-2,0.002-3.997-0.001-5.996,0
		c0,0.539,0,1.077,0,1.615c1.855,0.003,3.709,0,5.565,0c-0.002,0.777-0.002,1.555-0.002,2.333c-1.854,0-3.709-0.002-5.563,0.002
		c0.001,0.717,0.001,1.432,0,2.15c2.058,0.003,4.117,0,6.175,0.002c-0.002,0.897-0.002,1.794,0,2.692c-3.25,0-6.502,0-9.752,0
		C98,99.957,98,96.127,98,92.3z"/>
	<path fill="#FFFFFF" d="M121.055,93.875c1.077-0.521,2.15-1.051,3.226-1.577c0.014,1.017,0.003,2.035,0.006,3.053
		c0.589,0,1.179-0.003,1.771,0c-0.001,0.776-0.001,1.555,0,2.333c-0.592,0-1.181,0-1.771,0c0.024,1.298-0.056,2.599,0.054,3.892
		c0.465,0.4,1.072,0.184,1.592,0.035c0.075,0.713,0.172,1.423,0.222,2.137c-1.322,0.165-2.76,0.474-4.022-0.11
		c-0.9-0.502-1.044-1.625-1.061-2.553c-0.035-1.132-0.007-2.268-0.016-3.4c-0.388,0-0.775-0.001-1.161,0
		c0-0.778-0.001-1.557,0.002-2.333c0.384-0.003,0.771,0,1.159,0C121.057,94.858,121.057,94.367,121.055,93.875z"/>
	<path fill="#FFFFFF" d="M168.432,93.879c1.075-0.527,2.152-1.052,3.228-1.581c0.014,1.017,0.004,2.035,0.007,3.053
		c0.589,0,1.179-0.003,1.771,0c-0.002,0.776-0.002,1.555,0,2.333c-0.593,0-1.183,0-1.771,0c0.032,1.251-0.07,2.511,0.053,3.756
		c0.269,0.642,1.092,0.296,1.591,0.171c0.077,0.713,0.175,1.423,0.223,2.141c-1.293,0.162-2.666,0.439-3.92-0.06
		c-0.771-0.367-1.086-1.24-1.126-2.039c-0.098-1.32-0.033-2.646-0.051-3.969c-0.388,0-0.775-0.001-1.161,0
		c0-0.778-0.001-1.557,0.002-2.333c0.384-0.003,0.771,0,1.159,0C168.436,94.858,168.436,94.368,168.432,93.879z"/>
	<g>
		<path fill="#FFFFFF" d="M196.887,92.3c1.07,0,2.144,0,3.217,0c0.002,3.827,0,7.657,0.002,11.486c-1.003,0-2.005,0-3.006,0
			c0-0.37,0.002-0.738,0.012-1.105c-1.15,1.519-3.644,1.77-4.988,0.383c-1.187-1.298-1.404-3.205-1.118-4.878
			c0.173-1.059,0.784-2.059,1.729-2.591c1.307-0.728,3.047-0.52,4.164,0.47C196.873,94.809,196.892,93.554,196.887,92.3z
			 M195.222,97.334c-0.59,0.121-0.92,0.714-1.023,1.263c-0.112,0.719-0.126,1.465,0.057,2.172c0.159,0.57,0.677,1.111,1.31,1.046
			c0.728-0.055,1.185-0.78,1.271-1.446c0.099-0.81,0.142-1.713-0.313-2.431C196.266,97.496,195.726,97.24,195.222,97.334z"/>
	</g>
	<path fill="#FFFFFF" d="M245.856,92.3c1.195-0.002,2.393,0,3.59,0c-0.009,2.274,0.018,4.55-0.015,6.822
		c-0.063,1.254-0.14,2.68-1.111,3.604c-1.203,1.242-3.082,1.4-4.701,1.156c-1.055-0.112-2.109-0.606-2.712-1.504
		c-0.509-0.711-0.683-1.584-0.793-2.433c1.137-0.198,2.289-0.287,3.426-0.478c0.058,0.509,0.011,1.107,0.394,1.506
		c0.452,0.5,1.381,0.39,1.688-0.22c0.238-0.506,0.229-1.086,0.237-1.633C245.853,96.848,245.858,94.574,245.856,92.3z"/>
	<g>
		<path fill="#FFFFFF" d="M131.184,95.201c1.587-0.12,3.422,0.029,4.591,1.244c0.963,0.985,1.126,2.436,1.13,3.749
			c-2.159,0.008-4.317-0.013-6.475,0.011c0.093,0.662,0.446,1.352,1.138,1.539c0.754,0.268,1.497-0.136,2.035-0.642
			c1.039,0.131,2.087,0.202,3.119,0.386c-0.377,0.564-0.754,1.153-1.303,1.571c-0.851,0.701-1.996,0.854-3.059,0.908
			c-1.283,0.019-2.718-0.077-3.719-0.981c-1.526-1.294-1.829-3.631-1.046-5.407C128.223,96.183,129.687,95.321,131.184,95.201z
			 M130.421,98.571c1.077,0.016,2.155,0.011,3.234,0.003c-0.114-0.303-0.183-0.642-0.423-0.871
			C132.336,96.94,130.612,97.297,130.421,98.571z"/>
	</g>
	<path fill="#FFFFFF" d="M143.029,95.162c0.681-0.043,1.342,0.145,1.961,0.415c-0.328,0.778-0.657,1.555-0.998,2.327
		c-0.419-0.122-0.885-0.348-1.315-0.151c-0.618,0.199-0.821,0.889-0.932,1.46c-0.249,1.51-0.108,3.048-0.146,4.573
		c-1.07,0-2.139,0-3.207,0c0-2.813,0-5.623,0-8.436c1.006,0,2.011,0,3.015,0c0,0.445,0,0.894-0.005,1.343
		C141.743,96.002,142.236,95.346,143.029,95.162z"/>
	<path fill="#FFFFFF" d="M151.4,95.294c1.02-0.26,2.245-0.178,3.04,0.584c0.683,0.639,0.835,1.628,0.844,2.521
		c0.008,1.795-0.002,3.59,0.004,5.387c-1.069,0-2.139,0-3.209,0c0-1.502,0.002-3.003,0.002-4.504
		c-0.016-0.471-0.007-1.024-0.39-1.361c-0.551-0.466-1.483-0.248-1.809,0.385c-0.249,0.532-0.245,1.13-0.247,1.705
		c0.005,1.259,0.002,2.517,0.005,3.775c-1.072,0-2.139,0-3.209,0c0.002-2.813,0.002-5.623,0-8.435
		c0.994-0.004,1.986-0.001,2.98-0.001c-0.002,0.455,0,0.91,0,1.369C149.938,96.09,150.569,95.476,151.4,95.294z"/>
	<g>
		<path fill="#FFFFFF" d="M158.92,95.542c1.645-0.531,3.442-0.467,5.122-0.13c1.161,0.254,1.91,1.365,1.985,2.511
			c0.075,1.526-0.012,3.059,0.042,4.587c0.016,0.451,0.198,0.868,0.374,1.278c-1.013-0.002-2.022-0.006-3.032,0.001
			c-0.136-0.333-0.249-0.672-0.338-1.016c-1.043,1.063-2.639,1.354-4.063,1.128c-0.719-0.112-1.454-0.438-1.848-1.075
			c-0.72-1.028-0.328-2.691,0.886-3.151c1.57-0.632,3.321-0.626,4.892-1.278c-0.079-0.363-0.085-0.84-0.505-0.982
			c-0.883-0.297-2.09-0.026-2.328,0.995c-1.019-0.158-2.048-0.229-3.068-0.387C157.242,96.962,157.846,95.906,158.92,95.542z
			 M160.401,100.779c-0.467,0.21-0.521,0.954-0.072,1.217c0.698,0.376,1.611,0.144,2.178-0.373c0.448-0.409,0.394-1.064,0.433-1.612
			C162.103,100.298,161.197,100.389,160.401,100.779z"/>
	</g>
	<g>
		<path fill="#FFFFFF" d="M178.043,95.3c1.531-0.3,3.258-0.14,4.551,0.804c2.078,1.567,2.143,5.077,0.172,6.759
			c-1.215,1.047-2.951,1.259-4.483,1.02c-1.3-0.176-2.508-0.955-3.163-2.098c-0.596-1.012-0.65-2.258-0.413-3.383
			C175.079,96.82,176.461,95.595,178.043,95.3z M179.101,97.336c-0.728,0.167-1.197,0.868-1.263,1.588
			c-0.112,0.906-0.082,2.049,0.728,2.643c0.738,0.546,1.869,0.157,2.194-0.677c0.272-0.724,0.26-1.531,0.123-2.283
			C180.729,97.808,179.923,97.161,179.101,97.336z"/>
	</g>
	<g>
		<path fill="#FFFFFF" d="M202.887,96.433c0.972-0.997,2.428-1.31,3.774-1.267c1.316,0.035,2.763,0.32,3.667,1.362
			c0.902,0.986,1.046,2.388,1.056,3.666c-2.158,0.007-4.314-0.009-6.472,0.008c0.083,0.665,0.444,1.354,1.136,1.542
			c0.746,0.266,1.49-0.128,2.025-0.639c1.041,0.12,2.092,0.202,3.127,0.383c-0.559,0.908-1.284,1.8-2.335,2.145
			c-1.382,0.428-2.884,0.444-4.29,0.119c-1.599-0.391-2.733-1.939-2.878-3.542C201.541,98.864,201.876,97.388,202.887,96.433z
			 M204.897,98.569c1.078,0.021,2.157,0.013,3.235,0.005c-0.114-0.3-0.185-0.64-0.423-0.871
			C206.813,96.94,205.095,97.297,204.897,98.569z"/>
	</g>
	<g>
		<path fill="#FFFFFF" d="M254.32,95.298c1.531-0.296,3.253-0.136,4.545,0.805c2.079,1.568,2.146,5.08,0.171,6.762
			c-1.274,1.093-3.107,1.278-4.707,0.979c-1.669-0.294-3.119-1.653-3.407-3.341c-0.132-0.922-0.104-1.903,0.285-2.763
			C251.749,96.467,252.976,95.558,254.32,95.298z M255.373,97.336c-0.729,0.167-1.198,0.871-1.264,1.588
			c-0.11,0.906-0.082,2.05,0.731,2.645c0.733,0.543,1.858,0.158,2.188-0.667c0.276-0.727,0.263-1.539,0.128-2.295
			C257.004,97.807,256.193,97.161,255.373,97.336z"/>
	</g>
	<path fill="#FFFFFF" d="M262.258,96.398c0.809-1.037,2.229-1.214,3.455-1.232c1.11,0.005,2.346,0.007,3.268,0.718
		c0.527,0.403,0.826,1.012,1.101,1.598c-1.003,0.106-2.012,0.102-3.012,0.213c-0.354-0.729-1.312-0.887-2.012-0.624
		c-0.328,0.121-0.495,0.526-0.311,0.834c0.357,0.332,0.881,0.336,1.337,0.416c1.299,0.185,2.849,0.233,3.76,1.328
		c0.871,1.026,0.525,2.684-0.521,3.453c-1.128,0.853-2.626,0.896-3.98,0.859c-1.006-0.082-2.106-0.162-2.91-0.842
		c-0.529-0.404-0.801-1.027-1.027-1.633c1.052-0.188,2.124-0.236,3.181-0.402c0.307,1.095,1.749,1.43,2.606,0.771
		c0.367-0.279,0.254-0.888-0.198-0.998c-1.3-0.438-2.738-0.39-3.983-1C261.804,99.22,261.387,97.472,262.258,96.398z"/>
	<g>
		<path fill="#FFFFFF" d="M272.697,96.436c1.016-1.049,2.56-1.328,3.963-1.267c1.178,0.072,2.453,0.302,3.313,1.184
			c1.028,0.981,1.258,2.485,1.215,3.843c-2.153,0.004-4.307-0.009-6.46,0.007c0.096,0.658,0.436,1.351,1.129,1.54
			c0.752,0.27,1.502-0.13,2.041-0.639c1.037,0.124,2.084,0.202,3.114,0.385c-0.565,0.906-1.28,1.816-2.34,2.15
			c-1.381,0.421-2.886,0.442-4.287,0.106c-1.377-0.327-2.403-1.547-2.744-2.883C271.271,99.34,271.542,97.565,272.697,96.436z
			 M274.726,98.569c1.071,0.018,2.145,0.013,3.219,0.005c-0.115-0.305-0.184-0.647-0.43-0.875
			C276.622,96.938,274.912,97.304,274.726,98.569z"/>
	</g>
	<path fill="#FFFFFF" d="M108.732,95.348c1.272,0.004,2.547,0,3.821,0.004c0.44,0.788,0.891,1.571,1.33,2.356
		c0.508-0.793,1.021-1.584,1.554-2.364c1.181,0.012,2.362,0.004,3.542,0.007c-0.973,1.328-1.908,2.685-2.873,4.018
		c1.03,1.467,2.037,2.951,3.069,4.418c-1.262-0.014-2.523,0.025-3.785-0.022c-0.476-0.918-1.014-1.8-1.513-2.706
		c-0.598,0.916-1.217,1.815-1.82,2.729c-1.16-0.002-2.319,0-3.478,0c1.02-1.471,2.019-2.955,3.051-4.416
		C110.657,98.037,109.702,96.688,108.732,95.348z"/>
	<path fill="#FFFFFF" d="M230.087,100.556c1.133,0,2.266,0,3.399,0c-0.001,1.076-0.001,2.153,0,3.23c-1.134,0-2.267,0-3.399,0
		C230.087,102.709,230.087,101.632,230.087,100.556z"/>
	<path fill="#FFFFFF" d="M161.481,106.679c0.651-0.187,1.129,0.47,1.736,0.515c0.277,0,0.242-0.368,0.368-0.536
		c0.163,0.002,0.494,0.005,0.659,0.007c-0.056,0.508-0.16,1.155-0.703,1.362c-0.703,0.305-1.241-0.481-1.909-0.483
		c-0.119,0.172-0.218,0.355-0.295,0.55c-0.229-0.002-0.453-0.004-0.676-0.004C160.709,107.531,160.898,106.889,161.481,106.679z"/>
	<path fill="#FFFFFF" d="M144.854,106.836c0.338-0.002,0.676-0.002,1.018,0c0,2.572,0,5.146,0,7.717
		c-0.342-0.002-0.68-0.002-1.018,0C144.854,111.981,144.854,109.408,144.854,106.836z"/>
	<g>
		<path fill="#FFFFFF" d="M174.645,106.836c1.251,0.036,2.513-0.077,3.76,0.062c1.2,0.122,2.142,1.121,2.427,2.257
			c0.354,1.411,0.272,3.039-0.596,4.254c-0.549,0.787-1.535,1.103-2.453,1.141c-1.046,0.016-2.093-0.001-3.138,0.004
			C174.645,111.979,174.645,109.408,174.645,106.836z M175.662,107.735c0.001,1.972,0,3.946,0,5.918
			c0.955-0.044,1.942,0.127,2.876-0.146c0.999-0.3,1.35-1.44,1.415-2.373c0.1-1.145-0.072-2.567-1.192-3.172
			C177.782,107.55,176.689,107.8,175.662,107.735z"/>
	</g>
	<path fill="#FFFFFF" d="M197.149,106.836c0.313-0.002,0.628-0.002,0.943,0c-0.001,0.298-0.001,0.598,0.003,0.897
		c-0.318-0.001-0.634,0-0.946,0C197.146,107.434,197.147,107.134,197.149,106.836z"/>
	<path fill="#FFFFFF" d="M205.584,106.836c0.313-0.002,0.628-0.002,0.946,0c-0.002,0.298-0.002,0.598,0,0.897
		c-0.318-0.001-0.633-0.001-0.946,0C205.584,107.434,205.582,107.134,205.584,106.836z"/>
	<path fill="#FFFFFF" d="M149.315,108.862c0.448-0.175,0.902,0.065,1.312,0.238c-0.105,0.29-0.209,0.585-0.311,0.88
		c-0.323-0.18-0.711-0.411-1.075-0.196c-0.542,0.228-0.63,0.896-0.671,1.412c-0.023,1.118,0,2.237-0.008,3.356
		c-0.326-0.002-0.647-0.002-0.968,0c0-1.854,0-3.709,0-5.563c0.281-0.002,0.564-0.002,0.851,0c-0.004,0.233-0.009,0.466-0.011,0.701
		C148.673,109.37,148.898,108.975,149.315,108.862z"/>
	<path fill="#FFFFFF" d="M152.043,109.74c0.701-1.177,2.742-1.317,3.273,0.076c0.539-0.877,1.722-1.312,2.656-0.806
		c0.581,0.296,0.805,0.979,0.795,1.593c0.006,1.316-0.004,2.632,0,3.949c-0.315-0.002-0.633-0.002-0.944,0
		c-0.028-1.359,0.056-2.727-0.044-4.081c-0.073-0.731-1.026-0.965-1.583-0.625c-0.499,0.223-0.73,0.779-0.728,1.298
		c-0.012,1.137,0.002,2.272-0.002,3.408c-0.32-0.002-0.639-0.002-0.958,0c-0.009-1.256,0.015-2.51-0.009-3.763
		c0.001-0.429-0.182-0.897-0.612-1.052c-0.735-0.208-1.579,0.3-1.669,1.077c-0.145,1.237-0.03,2.492-0.066,3.737
		c-0.316-0.002-0.631-0.002-0.945,0c-0.001-1.856,0-3.709,0-5.565c0.28,0,0.568,0.002,0.856,0.004
		C152.059,109.178,152.048,109.551,152.043,109.74z"/>
	<g>
		<path fill="#FFFFFF" d="M160.93,109.196c0.894-0.478,2.027-0.542,2.964-0.136c0.421,0.171,0.706,0.58,0.791,1.021
			c0.201,1.483-0.181,3.033,0.312,4.479c-0.337-0.008-0.669-0.015-1.001-0.027c-0.047-0.226-0.09-0.448-0.131-0.674
			c-0.708,0.672-1.726,1.062-2.696,0.814c-0.721-0.135-1.327-0.802-1.279-1.552c-0.07-0.824,0.621-1.536,1.396-1.683
			c0.85-0.18,1.725-0.216,2.56-0.472c-0.063-0.344-0.017-0.771-0.336-0.994c-0.532-0.345-1.236-0.34-1.823-0.157
			c-0.434,0.14-0.572,0.612-0.754,0.979c-0.309-0.078-0.618-0.148-0.924-0.229C160.207,110.054,160.404,109.469,160.93,109.196z
			 M161.49,112.321c-0.518,0.094-0.835,0.771-0.435,1.173c0.613,0.582,1.664,0.396,2.278-0.1c0.47-0.357,0.458-0.985,0.503-1.516
			C163.066,112.086,162.265,112.148,161.49,112.321z"/>
	</g>
	<path fill="#FFFFFF" d="M166.521,109.206c0.869-0.567,2.08-0.53,2.956,0.004c0.424,0.249,0.535,0.76,0.702,1.185
		c-0.312,0.073-0.621,0.142-0.928,0.214c-0.228-1.045-1.746-1.215-2.394-0.503c-0.313,0.616,0.483,0.848,0.934,0.941
		c0.838,0.281,1.956,0.324,2.427,1.192c0.344,0.753,0.021,1.718-0.694,2.133c-0.839,0.473-1.912,0.483-2.784,0.094
		c-0.604-0.269-0.881-0.908-1.049-1.504c0.309-0.076,0.63-0.136,0.944-0.207c0.185,1.099,1.599,1.371,2.436,0.85
		c0.35-0.228,0.496-0.809,0.066-1.028c-0.889-0.408-1.937-0.417-2.759-0.981C165.631,111.007,165.723,109.713,166.521,109.206z"/>
	<g>
		<path fill="#FFFFFF" d="M184.103,108.827c0.976-0.143,2.056,0.246,2.572,1.119c0.585,0.981,0.556,2.245,0.199,3.302
			c-0.642,1.628-3.067,1.992-4.236,0.741c-0.826-0.91-0.867-2.274-0.585-3.409C182.298,109.64,183.152,108.954,184.103,108.827z
			 M183.95,109.796c-0.637,0.217-1.045,0.875-1.072,1.532c-0.047,0.68-0.051,1.46,0.45,1.989c0.609,0.746,1.9,0.681,2.451-0.102
			c0.452-0.639,0.426-1.485,0.313-2.224C185.91,110.061,184.845,109.435,183.95,109.796z"/>
	</g>
	<path fill="#FFFFFF" d="M189.012,109.743c0.4-0.521,0.983-0.956,1.67-0.939c0.69-0.048,1.345,0.374,1.604,1.013
		c0.413-0.589,1.068-1.076,1.823-1.011c0.801-0.03,1.558,0.601,1.599,1.419c0.069,1.439,0.008,2.887,0.03,4.328
		c-0.318-0.002-0.633-0.002-0.943,0c-0.012-1.26,0.018-2.521-0.014-3.782c0.014-0.411-0.172-0.871-0.598-0.998
		c-0.793-0.313-1.731,0.351-1.733,1.197c-0.037,1.193-0.003,2.389-0.014,3.583c-0.322-0.002-0.642-0.002-0.958,0
		c-0.004-1.198,0.004-2.396,0-3.592c-0.002-0.431-0.08-0.951-0.506-1.165c-0.735-0.341-1.694,0.204-1.783,1.014
		c-0.146,1.24-0.033,2.496-0.067,3.743c-0.317-0.002-0.634-0.002-0.945,0c0-1.854,0-3.709,0-5.563c0.282-0.002,0.568,0,0.856,0.002
		C189.027,109.18,189.017,109.555,189.012,109.743z"/>
	<path fill="#FFFFFF" d="M201.893,108.804c0.655-0.028,1.396,0.063,1.873,0.564c0.386,0.429,0.422,1.036,0.431,1.588
		c0,1.197-0.002,2.397,0,3.597c-0.325-0.002-0.648-0.002-0.968,0c-0.002-1.14-0.002-2.276,0.002-3.417
		c-0.006-0.384-0.009-0.822-0.293-1.116c-0.608-0.553-1.68-0.359-2.106,0.322c-0.207,0.411-0.227,0.88-0.225,1.333
		c0,0.957,0.002,1.919,0.002,2.878c-0.326-0.002-0.649-0.002-0.97,0c-0.001-1.854,0-3.709-0.001-5.563c0.29-0.002,0.583,0,0.878,0
		c-0.002,0.184-0.009,0.55-0.014,0.733C200.851,109.263,201.342,108.961,201.893,108.804z"/>
	<path fill="#FFFFFF" d="M207.889,110.265c0.546-1.53,2.795-1.946,3.934-0.845c0.327,0.31,0.458,0.75,0.604,1.166
		c-0.309,0.069-0.615,0.132-0.921,0.202c-0.14-0.316-0.267-0.671-0.569-0.868c-0.744-0.512-1.903-0.104-2.186,0.749
		c-0.23,0.707-0.224,1.491-0.008,2.204c0.243,0.739,1.112,1.156,1.849,0.906c0.562-0.139,0.86-0.68,0.969-1.207
		c0.322,0.073,0.646,0.143,0.975,0.222c-0.188,0.519-0.379,1.077-0.836,1.423c-1.137,0.939-3.122,0.583-3.748-0.789
		C207.515,112.442,207.521,111.27,207.889,110.265z"/>
	<g>
		<path fill="#FFFFFF" d="M214.64,108.933c0.996-0.235,2.404-0.259,2.983,0.753c0.489,1.577-0.14,3.308,0.441,4.873
			c-0.335-0.006-0.665-0.01-0.997-0.015c-0.047-0.231-0.091-0.461-0.128-0.691c-0.849,0.845-2.263,1.214-3.322,0.548
			c-0.907-0.615-0.845-2.126,0.095-2.682c0.97-0.568,2.168-0.36,3.198-0.77c-0.08-0.348-0.02-0.826-0.391-1.019
			c-0.549-0.297-1.247-0.313-1.818-0.084c-0.396,0.158-0.521,0.59-0.676,0.944c-0.303-0.073-0.607-0.138-0.906-0.207
			C213.276,109.801,213.822,109.086,214.64,108.933z M214.468,112.362c-0.534,0.156-0.691,0.922-0.217,1.243
			c0.693,0.449,1.705,0.245,2.278-0.321c0.381-0.368,0.315-0.931,0.367-1.411C216.104,112.12,215.262,112.132,214.468,112.362z"/>
	</g>
	<path fill="#FFFFFF" d="M221.637,108.804c0.616-0.022,1.294,0.05,1.78,0.476c0.416,0.375,0.507,0.965,0.518,1.5
		c0.011,1.259-0.004,2.516,0.003,3.773c-0.325-0.002-0.647-0.002-0.968,0c-0.002-1.138-0.002-2.272,0.002-3.41
		c-0.008-0.388-0.008-0.827-0.294-1.125c-0.607-0.547-1.666-0.358-2.101,0.315c-0.214,0.413-0.231,0.891-0.231,1.349
		c0.002,0.957,0.004,1.914,0.004,2.871c-0.327-0.002-0.65-0.002-0.97,0c-0.002-1.854-0.002-3.709,0-5.563
		c0.289-0.002,0.581-0.002,0.875,0c-0.005,0.245-0.008,0.492-0.01,0.74C220.594,109.271,221.081,108.957,221.637,108.804z"/>
	<g>
		<path fill="#FFFFFF" d="M226.661,108.934c0.994-0.236,2.399-0.26,2.984,0.746c0.496,1.576-0.142,3.313,0.447,4.877
			c-0.337-0.004-0.669-0.006-0.998-0.011c-0.048-0.231-0.093-0.461-0.133-0.693c-0.849,0.847-2.264,1.215-3.32,0.546
			c-0.903-0.616-0.847-2.118,0.088-2.676c0.971-0.576,2.176-0.359,3.208-0.778c-0.083-0.35-0.023-0.835-0.406-1.022
			c-0.547-0.285-1.234-0.303-1.802-0.077c-0.398,0.158-0.528,0.588-0.678,0.945c-0.306-0.072-0.61-0.137-0.91-0.206
			C225.301,109.803,225.845,109.086,226.661,108.934z M226.491,112.362c-0.537,0.158-0.691,0.933-0.209,1.248
			c0.693,0.44,1.693,0.238,2.268-0.319c0.386-0.368,0.316-0.935,0.371-1.418C228.127,112.12,227.283,112.131,226.491,112.362z"/>
	</g>
	<path fill="#FFFFFF" d="M231.566,109.282c0.863-0.651,2.14-0.624,3.049-0.076c0.432,0.248,0.547,0.764,0.705,1.198
		c-0.31,0.067-0.619,0.132-0.924,0.202c-0.225-1.044-1.77-1.219-2.397-0.485c-0.299,0.61,0.493,0.83,0.937,0.924
		c0.837,0.281,1.95,0.326,2.425,1.188c0.352,0.759,0.023,1.733-0.7,2.146c-0.844,0.468-1.918,0.477-2.789,0.082
		c-0.596-0.273-0.867-0.91-1.033-1.499c0.309-0.076,0.628-0.136,0.942-0.207c0.184,1.098,1.594,1.369,2.435,0.851
		c0.345-0.225,0.497-0.798,0.076-1.026c-0.89-0.411-1.941-0.419-2.762-0.982C230.816,111.038,230.854,109.826,231.566,109.282z"/>
	<path fill="#FFFFFF" d="M197.149,108.989c0.313-0.002,0.628-0.002,0.946,0c-0.003,1.854-0.003,3.709,0,5.563
		c-0.318-0.002-0.634-0.002-0.946,0C197.147,112.696,197.149,110.844,197.149,108.989z"/>
	<path fill="#FFFFFF" d="M205.584,108.989c0.313-0.002,0.628-0.002,0.946,0c0,1.854-0.002,3.707,0,5.563
		c-0.318-0.002-0.633,0-0.946,0C205.584,112.698,205.584,110.844,205.584,108.989z"/>
</g>
</svg>
